<?xml version="1.0" standalone="no"?>
<!DOCTYPE svg PUBLIC "-//W3C//DTD SVG 20010904//EN"
 "http://www.w3.org/TR/2001/REC-SVG-20010904/DTD/svg10.dtd">
<svg version="1.0" xmlns="http://www.w3.org/2000/svg"
 width="700.000000pt" height="700.000000pt" viewBox="0 0 700.000000 700.000000"
 preserveAspectRatio="xMidYMid meet">
<metadata>
Created by potrace 1.11, written by Peter Selinger 2001-2013
</metadata>
<g transform="translate(0.000000,700.000000) scale(0.100000,-0.100000)"
fill="#000000" stroke="none">
<path d="M703 6983 c-47 -16 -104 -70 -129 -122 -17 -34 -18 -116 -19 -1391
l-2 -1355 -37 -95 c-31 -78 -65 -184 -92 -280 -34 -125 -69 -314 -81 -438 -10
-98 -10 -493 -1 -592 16 -161 57 -368 105 -528 13 -46 23 -85 21 -86 -1 -1
-34 -8 -73 -15 -159 -29 -232 -52 -260 -81 -56 -59 -26 -164 54 -183 13 -3 98
10 189 28 90 19 168 32 172 30 4 -2 36 -64 73 -137 36 -73 91 -175 122 -226
31 -51 55 -95 53 -96 -1 -2 -32 -14 -68 -28 -203 -80 -363 -163 -385 -200 -36
-62 1 -146 73 -165 31 -7 61 3 223 78 64 30 129 59 145 65 16 6 53 21 83 33
29 11 59 21 65 21 7 0 43 -38 81 -85 93 -114 307 -323 430 -421 55 -43 154
-115 220 -159 152 -101 138 -93 280 -169 251 -135 496 -228 780 -296 170 -41
279 -58 490 -80 89 -9 567 -6 615 3 14 3 50 8 80 11 264 30 628 125 865 228
506 219 892 506 1243 925 l42 50 98 -38 c110 -44 99 -39 247 -109 61 -28 124
-54 141 -57 63 -10 124 49 124 121 0 60 -97 121 -370 231 -52 21 -97 40 -99
42 -2 1 23 46 55 100 32 54 87 157 122 228 36 72 65 131 66 131 1 2 102 -13
141 -21 11 -2 52 -11 90 -20 39 -10 86 -18 105 -19 66 -4 123 60 114 129 -4
39 -51 81 -106 96 -58 15 -165 38 -213 45 -22 4 -42 8 -44 10 -2 1 13 63 33
136 30 112 53 213 71 313 4 22 11 78 22 170 10 80 10 481 0 575 -8 77 -55 359
-62 370 -2 4 -6 17 -9 31 -11 56 -60 211 -98 314 l-42 110 -1 1355 -1 1355
-22 43 c-61 117 -197 162 -308 103 -21 -11 -356 -281 -744 -599 l-705 -578
-60 21 c-33 12 -67 25 -75 27 -35 13 -269 75 -315 84 -11 2 -42 8 -70 14 -27
6 -63 12 -80 15 -16 2 -39 6 -50 8 -11 3 -49 8 -85 12 -36 3 -76 8 -90 10
-156 22 -432 22 -685 0 -192 -16 -507 -83 -705 -149 -118 -40 -123 -41 -142
-23 -24 22 -119 101 -328 271 -113 92 -223 182 -245 201 -22 18 -157 129 -300
245 -143 117 -262 216 -265 219 -3 4 -14 14 -26 22 -11 8 -41 31 -65 51 -217
182 -259 200 -376 161z"/>
</g>
</svg>
